<svg xmlns="http://www.w3.org/2000/svg" xmlns:svg="http://www.w3.org/2000/svg" id="svg2" width="1500" height="1500" version="1.1" viewBox="0 0 1500 1500" xml:space="preserve"><metadata id="metadata8"/><defs id="defs6"><clipPath id="clipPath34" clipPathUnits="userSpaceOnUse"><path id="path36" d="m 0,1200 1920,0 L 1920,0 0,0 0,1200 Z"/></clipPath><clipPath id="clipPath72" clipPathUnits="userSpaceOnUse"><path id="path74" d="m 0,1200 1920,0 L 1920,0 0,0 0,1200 Z"/></clipPath></defs><g id="g10" transform="matrix(1.25,0,0,-1.25,0,1500)"><g id="g4172" transform="matrix(1.4677765,0,0,1.4677765,-304.34284,-573.04028)"><g id="g14" transform="matrix(1.5368611,0,0,1.5368611,284.48053,673.45605)"><path id="path16" d="m 0,0 149.456,-89.981 0,204.207 L 0,0 Z" style="fill:#0ca579;fill-opacity:1;fill-rule:nonzero;stroke:none"/></g><g id="g18" transform="matrix(1.5368611,0,0,1.5368611,638.39613,1179.4868)"><path id="path20" d="m 0,0 0,-196.574 -230.285,-132.689 0,199.633 L 0,0 Z" style="fill:#00ea90;fill-opacity:1;fill-rule:nonzero;stroke:none"/></g><g id="g22" transform="matrix(1.5368611,0,0,1.5368611,947.78164,924.93386)"><path id="path24" d="m 0,0 -149.457,89.975 0,-204.201 L 0,0 Z" style="fill:#333;fill-opacity:1;fill-rule:nonzero;stroke:none"/></g><g id="g26" transform="matrix(1.5368611,0,0,1.5368611,593.86619,418.90406)"><path id="path28" d="m 0,0 0,196.574 230.285,132.688 0,-199.632 L 0,0 Z" style="fill:#494949;fill-opacity:1;fill-rule:nonzero;stroke:none"/></g></g></g></svg>